<mxfile host="Electron" modified="2023-08-18T00:07:55.450Z" agent="Mozilla/5.0 (Windows NT 10.0; Win64; x64) AppleWebKit/537.36 (KHTML, like Gecko) draw.io/21.6.8 Chrome/114.0.5735.289 Electron/25.5.0 Safari/537.36" etag="jF0lzi3ndESuqFZxrWya" version="21.6.8" type="device">
  <diagram name="Page-1" id="L7SXfvPegRdhWm_WXFlZ">
    <mxGraphModel dx="1098" dy="958" grid="1" gridSize="10" guides="1" tooltips="1" connect="1" arrows="1" fold="1" page="1" pageScale="1" pageWidth="850" pageHeight="1100" math="0" shadow="0">
      <root>
        <mxCell id="0" />
        <mxCell id="1" parent="0" />
        <mxCell id="BUzX87lQQ8T4XNacPNJC-1" value="R stick" style="rounded=0;whiteSpace=wrap;html=1;fontSize=18;fillColor=#f8cecc;strokeColor=#b85450;" vertex="1" parent="1">
          <mxGeometry y="280" width="120" height="60" as="geometry" />
        </mxCell>
        <mxCell id="BUzX87lQQ8T4XNacPNJC-2" value="&lt;font style=&quot;font-size: 26px;&quot;&gt;KEY:&amp;nbsp;&lt;br&gt;Red = operator inputs&lt;br&gt;Yellow = system inputs&lt;br&gt;Green = outputs&lt;br&gt;Blue = concepts&lt;br&gt;Purple = progress&lt;br&gt;&lt;/font&gt;" style="rounded=0;whiteSpace=wrap;html=1;" vertex="1" parent="1">
          <mxGeometry width="850" height="280" as="geometry" />
        </mxCell>
        <mxCell id="BUzX87lQQ8T4XNacPNJC-3" value="L stick" style="rounded=0;whiteSpace=wrap;html=1;fillColor=#f8cecc;strokeColor=#b85450;fontSize=18;" vertex="1" parent="1">
          <mxGeometry y="340" width="120" height="59" as="geometry" />
        </mxCell>
        <mxCell id="BUzX87lQQ8T4XNacPNJC-73" style="edgeStyle=orthogonalEdgeStyle;rounded=0;orthogonalLoop=1;jettySize=auto;html=1;" edge="1" parent="1" source="BUzX87lQQ8T4XNacPNJC-4" target="BUzX87lQQ8T4XNacPNJC-21">
          <mxGeometry relative="1" as="geometry">
            <Array as="points">
              <mxPoint x="160" y="429" />
              <mxPoint x="160" y="370" />
            </Array>
          </mxGeometry>
        </mxCell>
        <mxCell id="BUzX87lQQ8T4XNacPNJC-4" value="Left bumper" style="rounded=0;whiteSpace=wrap;html=1;fontSize=18;fillColor=#f8cecc;strokeColor=#b85450;" vertex="1" parent="1">
          <mxGeometry y="399" width="120" height="60" as="geometry" />
        </mxCell>
        <mxCell id="BUzX87lQQ8T4XNacPNJC-67" value="" style="edgeStyle=orthogonalEdgeStyle;rounded=0;orthogonalLoop=1;jettySize=auto;html=1;entryX=0.361;entryY=0.983;entryDx=0;entryDy=0;entryPerimeter=0;" edge="1" parent="1" source="BUzX87lQQ8T4XNacPNJC-5" target="BUzX87lQQ8T4XNacPNJC-21">
          <mxGeometry relative="1" as="geometry">
            <Array as="points">
              <mxPoint x="171" y="489" />
              <mxPoint x="171" y="420" />
              <mxPoint x="304" y="420" />
            </Array>
          </mxGeometry>
        </mxCell>
        <mxCell id="BUzX87lQQ8T4XNacPNJC-5" value="&lt;font style=&quot;font-size: 18px;&quot;&gt;Right bumper&lt;/font&gt;" style="rounded=0;whiteSpace=wrap;html=1;fillColor=#f8cecc;strokeColor=#b85450;" vertex="1" parent="1">
          <mxGeometry y="459" width="120" height="60" as="geometry" />
        </mxCell>
        <mxCell id="BUzX87lQQ8T4XNacPNJC-45" style="edgeStyle=orthogonalEdgeStyle;rounded=0;orthogonalLoop=1;jettySize=auto;html=1;entryX=0.095;entryY=0.983;entryDx=0;entryDy=0;entryPerimeter=0;" edge="1" parent="1" source="BUzX87lQQ8T4XNacPNJC-7" target="BUzX87lQQ8T4XNacPNJC-21">
          <mxGeometry relative="1" as="geometry">
            <mxPoint x="222" y="609" as="targetPoint" />
          </mxGeometry>
        </mxCell>
        <mxCell id="BUzX87lQQ8T4XNacPNJC-7" value="&lt;font style=&quot;font-size: 18px;&quot;&gt;A&lt;/font&gt;" style="rounded=0;whiteSpace=wrap;html=1;fillColor=#f8cecc;strokeColor=#b85450;" vertex="1" parent="1">
          <mxGeometry y="579" width="120" height="60" as="geometry" />
        </mxCell>
        <mxCell id="BUzX87lQQ8T4XNacPNJC-47" style="edgeStyle=orthogonalEdgeStyle;rounded=0;orthogonalLoop=1;jettySize=auto;html=1;entryX=0.5;entryY=1;entryDx=0;entryDy=0;" edge="1" parent="1" source="BUzX87lQQ8T4XNacPNJC-9" target="BUzX87lQQ8T4XNacPNJC-21">
          <mxGeometry relative="1" as="geometry">
            <mxPoint x="222" y="729" as="targetPoint" />
          </mxGeometry>
        </mxCell>
        <mxCell id="BUzX87lQQ8T4XNacPNJC-9" value="&lt;font style=&quot;font-size: 18px;&quot;&gt;Y&lt;/font&gt;" style="rounded=0;whiteSpace=wrap;html=1;fillColor=#f8cecc;strokeColor=#b85450;" vertex="1" parent="1">
          <mxGeometry y="520" width="120" height="60" as="geometry" />
        </mxCell>
        <mxCell id="BUzX87lQQ8T4XNacPNJC-11" value="all(talon srx)&lt;br&gt;(turning)" style="rounded=0;whiteSpace=wrap;html=1;fontSize=18;fillColor=#d5e8d4;strokeColor=#82b366;" vertex="1" parent="1">
          <mxGeometry x="730" y="280" width="120" height="60" as="geometry" />
        </mxCell>
        <mxCell id="BUzX87lQQ8T4XNacPNJC-12" value="&lt;span style=&quot;font-size: 18px;&quot;&gt;all(talon srx)&lt;br&gt;(movement)&lt;br&gt;&lt;/span&gt;" style="rounded=0;whiteSpace=wrap;html=1;fillColor=#d5e8d4;strokeColor=#82b366;" vertex="1" parent="1">
          <mxGeometry x="730" y="339" width="120" height="60" as="geometry" />
        </mxCell>
        <mxCell id="BUzX87lQQ8T4XNacPNJC-13" value="victor SPX" style="rounded=0;whiteSpace=wrap;html=1;fontSize=18;fillColor=#d5e8d4;strokeColor=#82b366;" vertex="1" parent="1">
          <mxGeometry x="730" y="519" width="120" height="60" as="geometry" />
        </mxCell>
        <mxCell id="BUzX87lQQ8T4XNacPNJC-16" value="solonoid" style="rounded=0;whiteSpace=wrap;html=1;fillColor=#d5e8d4;strokeColor=#82b366;fontSize=18;" vertex="1" parent="1">
          <mxGeometry x="730" y="579" width="120" height="60" as="geometry" />
        </mxCell>
        <mxCell id="BUzX87lQQ8T4XNacPNJC-18" value="talon" style="rounded=0;whiteSpace=wrap;html=1;fillColor=#d5e8d4;strokeColor=#82b366;fontSize=18;" vertex="1" parent="1">
          <mxGeometry x="730" y="639" width="120" height="60" as="geometry" />
        </mxCell>
        <mxCell id="BUzX87lQQ8T4XNacPNJC-19" value="DRIVE" style="rounded=0;whiteSpace=wrap;html=1;fontSize=18;fillColor=#dae8fc;strokeColor=#6c8ebf;" vertex="1" parent="1">
          <mxGeometry x="222" y="280" width="208" height="60" as="geometry" />
        </mxCell>
        <mxCell id="BUzX87lQQ8T4XNacPNJC-52" style="edgeStyle=orthogonalEdgeStyle;rounded=0;orthogonalLoop=1;jettySize=auto;html=1;exitX=0.861;exitY=1.017;exitDx=0;exitDy=0;exitPerimeter=0;" edge="1" parent="1" source="BUzX87lQQ8T4XNacPNJC-21" target="BUzX87lQQ8T4XNacPNJC-32">
          <mxGeometry relative="1" as="geometry">
            <mxPoint x="472" y="429" as="targetPoint" />
            <Array as="points">
              <mxPoint x="383" y="392" />
              <mxPoint x="380" y="392" />
              <mxPoint x="380" y="451" />
              <mxPoint x="430" y="451" />
              <mxPoint x="430" y="609" />
            </Array>
          </mxGeometry>
        </mxCell>
        <mxCell id="BUzX87lQQ8T4XNacPNJC-69" value="" style="edgeStyle=orthogonalEdgeStyle;rounded=0;orthogonalLoop=1;jettySize=auto;html=1;" edge="1" parent="1" source="BUzX87lQQ8T4XNacPNJC-21" target="BUzX87lQQ8T4XNacPNJC-31">
          <mxGeometry relative="1" as="geometry">
            <mxPoint x="499" y="429" as="targetPoint" />
          </mxGeometry>
        </mxCell>
        <mxCell id="BUzX87lQQ8T4XNacPNJC-71" value="" style="edgeStyle=orthogonalEdgeStyle;rounded=0;orthogonalLoop=1;jettySize=auto;html=1;" edge="1" parent="1" source="BUzX87lQQ8T4XNacPNJC-21" target="BUzX87lQQ8T4XNacPNJC-33">
          <mxGeometry relative="1" as="geometry">
            <mxPoint x="499" y="429" as="targetPoint" />
            <Array as="points">
              <mxPoint x="350" y="669" />
            </Array>
          </mxGeometry>
        </mxCell>
        <mxCell id="BUzX87lQQ8T4XNacPNJC-21" value="LAUNCHER" style="rounded=0;whiteSpace=wrap;html=1;fontSize=18;fillColor=#dae8fc;strokeColor=#6c8ebf;" vertex="1" parent="1">
          <mxGeometry x="247" y="340" width="158" height="60" as="geometry" />
        </mxCell>
        <mxCell id="BUzX87lQQ8T4XNacPNJC-66" style="edgeStyle=orthogonalEdgeStyle;rounded=0;orthogonalLoop=1;jettySize=auto;html=1;" edge="1" parent="1" source="BUzX87lQQ8T4XNacPNJC-27" target="BUzX87lQQ8T4XNacPNJC-11">
          <mxGeometry relative="1" as="geometry" />
        </mxCell>
        <mxCell id="BUzX87lQQ8T4XNacPNJC-27" value="TRAIN" style="rounded=0;whiteSpace=wrap;html=1;fontSize=18;fillColor=#e1d5e7;strokeColor=#9673a6;" vertex="1" parent="1">
          <mxGeometry x="430" y="280" width="210" height="60" as="geometry" />
        </mxCell>
        <mxCell id="BUzX87lQQ8T4XNacPNJC-65" style="edgeStyle=orthogonalEdgeStyle;rounded=0;orthogonalLoop=1;jettySize=auto;html=1;" edge="1" parent="1" source="BUzX87lQQ8T4XNacPNJC-27" target="BUzX87lQQ8T4XNacPNJC-12">
          <mxGeometry relative="1" as="geometry">
            <mxPoint x="640" y="369" as="sourcePoint" />
            <Array as="points">
              <mxPoint x="685" y="320" />
              <mxPoint x="685" y="369" />
            </Array>
          </mxGeometry>
        </mxCell>
        <mxCell id="BUzX87lQQ8T4XNacPNJC-64" style="edgeStyle=orthogonalEdgeStyle;rounded=0;orthogonalLoop=1;jettySize=auto;html=1;" edge="1" parent="1" source="BUzX87lQQ8T4XNacPNJC-31" target="BUzX87lQQ8T4XNacPNJC-13">
          <mxGeometry relative="1" as="geometry">
            <mxPoint x="640" y="429" as="sourcePoint" />
            <Array as="points">
              <mxPoint x="690" y="550" />
              <mxPoint x="690" y="550" />
            </Array>
          </mxGeometry>
        </mxCell>
        <mxCell id="BUzX87lQQ8T4XNacPNJC-31" value="TILT" style="rounded=0;whiteSpace=wrap;html=1;fontSize=18;fillColor=#e1d5e7;strokeColor=#9673a6;" vertex="1" parent="1">
          <mxGeometry x="472" y="519" width="168" height="60" as="geometry" />
        </mxCell>
        <mxCell id="BUzX87lQQ8T4XNacPNJC-60" style="edgeStyle=orthogonalEdgeStyle;rounded=0;orthogonalLoop=1;jettySize=auto;html=1;" edge="1" parent="1" source="BUzX87lQQ8T4XNacPNJC-32" target="BUzX87lQQ8T4XNacPNJC-16">
          <mxGeometry relative="1" as="geometry" />
        </mxCell>
        <mxCell id="BUzX87lQQ8T4XNacPNJC-32" value="&lt;font style=&quot;font-size: 18px;&quot;&gt;KICK&lt;/font&gt;" style="rounded=0;whiteSpace=wrap;html=1;fillColor=#e1d5e7;strokeColor=#9673a6;fontSize=18;" vertex="1" parent="1">
          <mxGeometry x="472" y="579" width="168" height="60" as="geometry" />
        </mxCell>
        <mxCell id="BUzX87lQQ8T4XNacPNJC-33" value="LAUNCH WHEEL" style="rounded=0;whiteSpace=wrap;html=1;fontSize=18;fillColor=#e1d5e7;strokeColor=#9673a6;" vertex="1" parent="1">
          <mxGeometry x="472" y="639" width="168" height="60" as="geometry" />
        </mxCell>
        <mxCell id="BUzX87lQQ8T4XNacPNJC-58" style="edgeStyle=orthogonalEdgeStyle;rounded=0;orthogonalLoop=1;jettySize=auto;html=1;" edge="1" parent="1" source="BUzX87lQQ8T4XNacPNJC-33" target="BUzX87lQQ8T4XNacPNJC-18">
          <mxGeometry relative="1" as="geometry">
            <mxPoint x="640" y="729" as="sourcePoint" />
          </mxGeometry>
        </mxCell>
        <mxCell id="BUzX87lQQ8T4XNacPNJC-35" value="" style="endArrow=classic;html=1;rounded=0;" edge="1" parent="1" source="BUzX87lQQ8T4XNacPNJC-1" target="BUzX87lQQ8T4XNacPNJC-19">
          <mxGeometry width="50" height="50" relative="1" as="geometry">
            <mxPoint x="400" y="470" as="sourcePoint" />
            <mxPoint x="450" y="420" as="targetPoint" />
            <Array as="points" />
          </mxGeometry>
        </mxCell>
        <mxCell id="BUzX87lQQ8T4XNacPNJC-36" value="" style="endArrow=classic;html=1;rounded=0;" edge="1" parent="1" target="BUzX87lQQ8T4XNacPNJC-19">
          <mxGeometry width="50" height="50" relative="1" as="geometry">
            <mxPoint x="123" y="369" as="sourcePoint" />
            <mxPoint x="225" y="369" as="targetPoint" />
            <Array as="points" />
          </mxGeometry>
        </mxCell>
        <mxCell id="BUzX87lQQ8T4XNacPNJC-78" style="edgeStyle=orthogonalEdgeStyle;rounded=0;orthogonalLoop=1;jettySize=auto;html=1;" edge="1" parent="1" source="BUzX87lQQ8T4XNacPNJC-72" target="BUzX87lQQ8T4XNacPNJC-31">
          <mxGeometry relative="1" as="geometry">
            <Array as="points">
              <mxPoint x="316" y="710" />
              <mxPoint x="316" y="560" />
            </Array>
          </mxGeometry>
        </mxCell>
        <mxCell id="BUzX87lQQ8T4XNacPNJC-72" value="limit switch (-)" style="rounded=0;whiteSpace=wrap;html=1;fillColor=#fff2cc;strokeColor=#d6b656;fontSize=18;" vertex="1" parent="1">
          <mxGeometry x="40" y="680" width="120" height="60" as="geometry" />
        </mxCell>
        <mxCell id="BUzX87lQQ8T4XNacPNJC-79" style="edgeStyle=orthogonalEdgeStyle;rounded=0;orthogonalLoop=1;jettySize=auto;html=1;entryX=0;entryY=0.5;entryDx=0;entryDy=0;" edge="1" parent="1" source="BUzX87lQQ8T4XNacPNJC-74" target="BUzX87lQQ8T4XNacPNJC-31">
          <mxGeometry relative="1" as="geometry" />
        </mxCell>
        <mxCell id="BUzX87lQQ8T4XNacPNJC-74" value="limit switch (+)" style="rounded=0;whiteSpace=wrap;html=1;fillColor=#fff2cc;strokeColor=#d6b656;fontSize=18;" vertex="1" parent="1">
          <mxGeometry x="40" y="740" width="120" height="60" as="geometry" />
        </mxCell>
        <mxCell id="BUzX87lQQ8T4XNacPNJC-75" value="kick = pneumatic" style="text;html=1;align=center;verticalAlign=middle;resizable=0;points=[];autosize=1;strokeColor=none;fillColor=none;" vertex="1" parent="1">
          <mxGeometry x="350" y="609" width="110" height="30" as="geometry" />
        </mxCell>
        <mxCell id="BUzX87lQQ8T4XNacPNJC-81" value="" style="edgeStyle=orthogonalEdgeStyle;rounded=0;orthogonalLoop=1;jettySize=auto;html=1;" edge="1" parent="1" source="BUzX87lQQ8T4XNacPNJC-80" target="BUzX87lQQ8T4XNacPNJC-33">
          <mxGeometry relative="1" as="geometry" />
        </mxCell>
        <mxCell id="BUzX87lQQ8T4XNacPNJC-80" value="(toggle on off)" style="text;html=1;align=center;verticalAlign=middle;resizable=0;points=[];autosize=1;strokeColor=none;fillColor=none;" vertex="1" parent="1">
          <mxGeometry x="472" y="740" width="100" height="30" as="geometry" />
        </mxCell>
        <mxCell id="BUzX87lQQ8T4XNacPNJC-83" value="" style="edgeStyle=orthogonalEdgeStyle;rounded=0;orthogonalLoop=1;jettySize=auto;html=1;" edge="1" parent="1" source="BUzX87lQQ8T4XNacPNJC-82" target="BUzX87lQQ8T4XNacPNJC-33">
          <mxGeometry relative="1" as="geometry">
            <mxPoint x="620" y="700" as="targetPoint" />
          </mxGeometry>
        </mxCell>
        <mxCell id="BUzX87lQQ8T4XNacPNJC-82" value="(PID LOOP)(for launch speed)" style="text;html=1;align=center;verticalAlign=middle;resizable=0;points=[];autosize=1;strokeColor=none;fillColor=none;" vertex="1" parent="1">
          <mxGeometry x="561" y="730" width="180" height="30" as="geometry" />
        </mxCell>
        <mxCell id="BUzX87lQQ8T4XNacPNJC-85" style="edgeStyle=orthogonalEdgeStyle;rounded=0;orthogonalLoop=1;jettySize=auto;html=1;" edge="1" parent="1" source="BUzX87lQQ8T4XNacPNJC-84" target="BUzX87lQQ8T4XNacPNJC-82">
          <mxGeometry relative="1" as="geometry" />
        </mxCell>
        <mxCell id="BUzX87lQQ8T4XNacPNJC-84" value="(3 speeds)(max,medium,min)" style="text;html=1;strokeColor=none;fillColor=none;align=center;verticalAlign=middle;whiteSpace=wrap;rounded=0;" vertex="1" parent="1">
          <mxGeometry x="621" y="780" width="60" height="30" as="geometry" />
        </mxCell>
      </root>
    </mxGraphModel>
  </diagram>
</mxfile>
